<?xml version="1.0" encoding="UTF-8"?>
<svg width="24" height="24" version="1.1" viewBox="0 0 24 24" xmlns="http://www.w3.org/2000/svg" xmlns:cc="http://creativecommons.org/ns#" xmlns:dc="http://purl.org/dc/elements/1.1/" xmlns:rdf="http://www.w3.org/1999/02/22-rdf-syntax-ns#">
 <path d="m13.2 8.4h6.6l-6.6-6.6v6.6m-8.4-8.4h9.6l7.2 7.2v14.4a2.4 2.4 0 0 1-2.4 2.4h-14.4c-1.332 0-2.4-1.08-2.4-2.4v-19.2c0-1.332 1.068-2.4 2.4-2.4m9.6 21.6v-1.2c0-1.596-3.204-2.4-4.8-2.4s-4.8 0.804-4.8 2.4v1.2h9.6m-4.8-9.6a2.4 2.4 0 0 0-2.4 2.4 2.4 2.4 0 0 0 2.4 2.4 2.4 2.4 0 0 0 2.4-2.4 2.4 2.4 0 0 0-2.4-2.4z" fill="#fff"/>
</svg>
