<?xml version="1.0" standalone="no"?>
<!DOCTYPE svg PUBLIC "-//W3C//DTD SVG 20010904//EN"
 "http://www.w3.org/TR/2001/REC-SVG-20010904/DTD/svg10.dtd">
<svg version="1.0" xmlns="http://www.w3.org/2000/svg"
 width="700.000000pt" height="700.000000pt" viewBox="0 0 700.000000 700.000000"
 preserveAspectRatio="xMidYMid meet">
<metadata>
Created by potrace 1.11, written by Peter Selinger 2001-2013
</metadata>
<g transform="translate(0.000000,700.000000) scale(0.100000,-0.100000)"
fill="#000000" stroke="none">
<path d="M1635 6404 c-169 -31 -334 -158 -408 -314 -65 -135 -60 60 -60 -2590
l0 -2405 22 -80 c29 -106 71 -176 150 -256 74 -73 143 -116 246 -150 l70 -24
1845 0 1845 0 68 22 c199 63 352 224 403 423 16 59 17 218 17 1851 l1 1785
-876 876 -875 875 -1189 0 c-922 0 -1205 -3 -1259 -13z m2961 -1228 c437 -437
794 -796 794 -798 0 -3 -1574 -2 -1592 1 -9 1 -11 1591 -2 1591 3 0 363 -357
800 -794z m-1496 -1706 c63 -21 174 -87 216 -128 157 -151 219 -384 158 -592
-35 -120 -129 -248 -234 -317 -234 -154 -538 -123 -737 75 -153 152 -207 389
-137 600 42 124 156 259 271 320 138 73 322 90 463 42z m50 -1445 c25 -4 77
-13 115 -21 39 -9 81 -18 95 -20 84 -15 262 -76 365 -125 192 -91 314 -204
347 -324 13 -48 17 -355 4 -362 -6 -4 -2250 -7 -2319 -3 -5 0 -7 82 -5 183 3
169 5 185 28 232 29 60 126 160 195 202 198 121 475 211 735 239 30 4 57 8 59
10 7 6 328 -3 381 -11z"/>
</g>
</svg>
